<?xml version="1.0" encoding="UTF-8"?>
<svg width="48px" height="34px" viewBox="0 0 48 34" version="1.1" xmlns="http://www.w3.org/2000/svg" xmlns:xlink="http://www.w3.org/1999/xlink">
    <title>BF5E160F-12B2-4ECD-AC50-1661A8AEB8ED</title>
    <defs>
        <filter x="-3.5%" y="-66.0%" width="106.9%" height="228.0%" filterUnits="objectBoundingBox" id="filter-1">
            <feOffset dx="0" dy="0" in="SourceAlpha" result="shadowOffsetOuter1"></feOffset>
            <feGaussianBlur stdDeviation="3" in="shadowOffsetOuter1" result="shadowBlurOuter1"></feGaussianBlur>
            <feColorMatrix values="0 0 0 0 0.11372549   0 0 0 0 0.11372549   0 0 0 0 0.11372549  0 0 0 0.3 0" type="matrix" in="shadowBlurOuter1" result="shadowMatrixOuter1"></feColorMatrix>
            <feMerge>
                <feMergeNode in="shadowMatrixOuter1"></feMergeNode>
                <feMergeNode in="SourceGraphic"></feMergeNode>
            </feMerge>
        </filter>
    </defs>
    <g id="iOS" stroke="none" stroke-width="1" fill="none" fill-rule="evenodd">
        <g id="SpaceX_MobileApp_iOS_X_Home_Rockets_1" transform="translate(-44.000000, -733.000000)" fill="#58FBC8" fill-rule="nonzero">
            <g id="Bars/Tab-Bar/iOS/3-Items" filter="url(#filter-1)" transform="translate(0.000000, 732.000000)">
                <g id="Bars/Tab-Bar/Elements/Items/Active_Pressed" transform="translate(44.000000, 1.000000)">
                    <g id="Group-14" transform="translate(16.283962, 3.329133)">
                        <path d="M11.2901564,5.15451545 C11.7425957,6.54065407 11.9882056,8.05880588 11.9882056,9.7029703 C11.9882056,13.3453345 11.6585713,16.5976598 10.9993026,19.3819382 L4.42600602,19.3819382 C3.77320075,16.6216622 3.43710299,13.3693369 3.43710299,9.7029703 C3.43710299,8.05880588 3.68271289,6.54065407 4.13515219,5.15451545 C5.21454307,5.73057306 6.42966574,6.03060306 7.70942259,6.03060306 C8.98271603,6.03060306 10.2043021,5.72457246 11.2901564,5.15451545 Z M7.70942259,9.8169817 C6.98551972,9.8169817 6.39088523,10.3690369 6.39088523,11.0411041 C6.39088523,11.7131713 6.97905631,12.2652265 7.70942259,12.2652265 C8.43332546,12.2652265 9.02795996,11.7131713 9.02795996,11.0411041 C9.02795996,10.3690369 8.43978888,9.8169817 7.70942259,9.8169817 Z" id="Combined-Shape"></path>
                        <path d="M15.3750369,21.3921392 L12.2467423,19.6819682 C12.550523,18.3978398 12.7896695,17.0237024 12.9577184,15.559556 C14.0306458,16.4836484 15.6982078,18.4158416 15.3750369,21.3921392 Z" id="Path"></path>
                        <path d="M7.993813,0.222022202 C8.02613009,0.252025203 8.07137402,0.288028803 8.10369112,0.318031803 C8.18125214,0.384038404 8.25881316,0.444044404 8.3428376,0.522052205 C8.39454495,0.564056406 8.44625229,0.618061806 8.49795964,0.666066607 C8.58198408,0.744074407 8.6595451,0.816081608 8.74356954,0.906090609 C8.80174031,0.96609661 8.86637449,1.03210321 8.92454526,1.09810981 C9.0085697,1.18811881 9.09259414,1.27812781 9.183082,1.38013801 C9.24771618,1.45814581 9.31235037,1.54215422 9.38344797,1.62016202 C9.46747241,1.72217222 9.55149685,1.83018302 9.64198471,1.94419442 C9.71308231,2.03420342 9.7777165,2.13621362 9.8488141,2.23222322 C9.93283854,2.35223522 10.016863,2.47224722 10.1008874,2.60426043 C10.171985,2.71227123 10.2366192,2.82628263 10.3012534,2.94029403 C10.3788144,3.07830783 10.4628389,3.21632163 10.5403999,3.36633663 C10.6050341,3.49234923 10.6696682,3.61836184 10.7343024,3.75037504 C10.7730829,3.83438344 10.8118634,3.92439244 10.850644,4.01440144 C8.96332577,5.10051005 6.43612915,5.09450945 4.5617378,4.01440144 C4.60051831,3.92439244 4.63929882,3.83438344 4.68454275,3.75037504 C4.74917694,3.62436244 4.8073477,3.49834983 4.87198189,3.37233723 C4.94954291,3.22232223 5.03356735,3.07830783 5.11759179,2.94029403 C5.18222597,2.82628263 5.24686016,2.71827183 5.31795776,2.61026103 C5.4019822,2.47824782 5.48600664,2.35223522 5.5764945,2.22622262 C5.64112869,2.13021302 5.70576287,2.03420342 5.77686047,1.94419442 C5.86734833,1.82418242 5.95137277,1.71617162 6.04186063,1.61416142 C6.10649481,1.53615362 6.171129,1.45214521 6.23576318,1.38013801 C6.32625104,1.27812781 6.41027548,1.18811881 6.49429992,1.09210921 C6.55247069,1.03210321 6.61064145,0.96009601 6.66881222,0.906090609 C6.75930008,0.816081608 6.8368611,0.738073807 6.92088554,0.660066007 C6.97259289,0.612061206 7.02430023,0.558055806 7.06954416,0.516051605 C7.16003202,0.438043804 7.23759304,0.372037204 7.31515406,0.306030603 C7.34747116,0.276027603 7.39271509,0.240024002 7.42503218,0.216021602 C7.53491029,0.132013201 7.63186157,0.0540054005 7.71588601,0 C7.79344703,0.0600060006 7.89039831,0.132013201 7.993813,0.222022202 Z" id="Path"></path>
                        <path d="M2.46112681,15.5535554 C2.62917569,17.0237024 2.86832217,18.4038404 3.17856625,19.6819682 L0.0438083035,21.3921392 C-0.292289456,18.3858386 1.38173592,16.4656466 2.46112681,15.5535554 Z" id="Path"></path>
                        <path d="M10.0621069,22.3582358 L10.0621069,25.3225323 C10.0621069,25.6525653 10.3529607,25.9225923 10.7084488,25.9225923 C11.0639368,25.9225923 11.3547906,25.6525653 11.3547906,25.3225323 L11.3547906,22.3582358 C11.3547906,22.0282028 11.0639368,21.7581758 10.7084488,21.7581758 C10.3529607,21.7581758 10.0621069,22.0222022 10.0621069,22.3582358 Z" id="Path"></path>
                        <path d="M7.06308075,25.1065107 L7.06308075,28.0708071 C7.06308075,28.4008401 7.35393458,28.6708671 7.70942259,28.6708671 C8.06491061,28.6708671 8.35576444,28.4008401 8.35576444,28.0708071 L8.35576444,25.1065107 C8.35576444,24.7764776 8.06491061,24.5064506 7.70942259,24.5064506 C7.35393458,24.5064506 7.06308075,24.7764776 7.06308075,25.1065107 Z" id="Path"></path>
                        <path d="M4.06405458,22.3582358 L4.06405458,25.3225323 C4.06405458,25.6525653 4.35490841,25.9225923 4.71039643,25.9225923 C5.06588444,25.9225923 5.35673827,25.6525653 5.35673827,25.3225323 L5.35673827,22.3582358 C5.35673827,22.0282028 5.06588444,21.7581758 4.71039643,21.7581758 C4.35490841,21.7581758 4.06405458,22.0222022 4.06405458,22.3582358 Z" id="Path"></path>
                    </g>
                </g>
            </g>
        </g>
    </g>
</svg>