<?xml version="1.0" encoding="UTF-8"?>
<svg width="1024px" height="1024px" viewBox="0 0 1024 1024" version="1.1" xmlns="http://www.w3.org/2000/svg" xmlns:xlink="http://www.w3.org/1999/xlink">
    <title>3F98EFB0-6D79-4A4A-800E-C91F39BFA698</title>
    <defs>
        <linearGradient x1="50%" y1="0%" x2="50%" y2="100%" id="linearGradient-1">
            <stop stop-color="#363F4A" offset="0%"></stop>
            <stop stop-color="#080D12" offset="58.9729087%"></stop>
            <stop stop-color="#0B0F14" offset="100%"></stop>
        </linearGradient>
        <filter x="-1.4%" y="-10.7%" width="102.9%" height="121.4%" filterUnits="objectBoundingBox" id="filter-2">
            <feOffset dx="0" dy="2" in="SourceAlpha" result="shadowOffsetOuter1"></feOffset>
            <feGaussianBlur stdDeviation="2.5" in="shadowOffsetOuter1" result="shadowBlurOuter1"></feGaussianBlur>
            <feColorMatrix values="0 0 0 0 1   0 0 0 0 1   0 0 0 0 1  0 0 0 0.85 0" type="matrix" in="shadowBlurOuter1" result="shadowMatrixOuter1"></feColorMatrix>
            <feMerge>
                <feMergeNode in="shadowMatrixOuter1"></feMergeNode>
                <feMergeNode in="SourceGraphic"></feMergeNode>
            </feMerge>
        </filter>
    </defs>
    <g id="App_Logo" stroke="none" stroke-width="1" fill="none" fill-rule="evenodd">
        <g id="1024">
            <rect id="Rectangle" fill="url(#linearGradient-1)" x="0" y="0" width="1024" height="1024"></rect>
            <g id="SpaceX-White-Logo.wine" filter="url(#filter-2)" transform="translate(59.000000, 449.000000)" fill="#FFFFFF" fill-rule="nonzero">
                <path d="M85.6275304,79.2473684 L22.3582996,79.2473684 L22.3582996,62.8342105 L103.942308,62.8342105 C101.801619,55.8710526 94.9038462,49.4052632 82.7732794,49.4052632 L23.5475709,49.4052632 C9.98987854,49.4052632 2.14068826,54.6276316 2.14068826,66.0671053 L2.14068826,78.2526316 C2.14068826,88.2 10.2277328,93.9197368 22.1204453,93.9197368 L86.1032389,93.9197368 L86.1032389,111.327632 L0,111.327632 C2.14068826,120.777632 9.03846154,125.751316 21.4068826,125.751316 L85.8653846,125.751316 C99.4230769,125.751316 106.082996,120.280263 106.082996,108.592105 L106.082996,96.4065789 C106.082996,85.7131579 98.2338057,79.9934211 85.6275304,79.2473684 Z M214.782389,49.6539474 L136.766194,49.6539474 L136.766194,126 L158.88664,126 L158.88664,96.6552632 L216.447368,96.6552632 C232.383603,96.6552632 241.184211,90.9355263 241.184211,77.5065789 L241.184211,69.0513158 C240.946356,56.6171053 230.956478,49.6539474 214.782389,49.6539474 L214.782389,49.6539474 Z M221.918016,74.025 C221.918016,79.4960526 220.966599,82.4802632 212.403846,82.4802632 L158.88664,82.4802632 L159.124494,62.5855263 L211.452429,62.5855263 C220.966599,62.5855263 222.15587,65.5697368 222.15587,70.7921053 L222.15587,74.025 L221.918016,74.025 Z M304.733806,96.1578947 L257.638664,96.1578947 L245.983806,109.089474 L314.010121,109.089474 L325.66498,126 L351.828947,126 L295.45749,46.4210526 L282.137652,63.5802632 L304.733806,96.1578947 Z M400.798583,62.8342105 L483.571862,62.8342105 C481.431174,53.8815789 473.106275,49.4052632 461.213563,49.4052632 L399.371457,49.4052632 C388.668016,49.4052632 378.440283,53.8815789 378.440283,66.0671053 L378.440283,108.840789 C378.440283,121.026316 388.668016,125.502632 399.371457,125.502632 L461.927126,125.502632 C476.198381,125.502632 481.19332,121.275 483.571862,111.078947 L400.798583,111.078947 L400.798583,62.8342105 Z M580.616397,88.2 L580.616397,75.2684211 L513.779352,75.2684211 L513.779352,126 L612.488866,126 L612.488866,111.576316 L536.137652,111.576316 L536.137652,88.2 L580.616397,88.2 Z M516.157895,49.6539474 L615.818826,49.6539474 L615.818826,63.0828947 L516.157895,63.0828947 L516.157895,49.6539474 Z M677.185223,49.6539474 L642.458502,49.6539474 L683.369433,80.9881579 C689.315789,76.7605263 696.213563,72.2842105 702.397773,68.5539474 L677.185223,49.6539474 Z M727.610324,85.3815789 C721.663968,89.6092105 715.717611,94.3342105 710.009109,98.8105263 L740.930162,122.435526 L775.894737,122.435526 L727.610324,85.3815789 Z" id="Shape"></path>
                <path d="M945,0 C754.929548,11.6360282 667.021964,98.1473684 647.302155,118.636896 L643.263158,122.684211 L678.426191,122.684211 C773.461417,21.2483993 910.074554,3.28844276 945,0 Z" id="Path"></path>
            </g>
        </g>
    </g>
</svg>