<?xml version="1.0" encoding="UTF-8"?>
<svg width="50px" height="50px" viewBox="0 0 50 50" version="1.1" xmlns="http://www.w3.org/2000/svg" xmlns:xlink="http://www.w3.org/1999/xlink">
    <title>E6C63ED7-A20C-4C04-9C6E-388A39DB43FC</title>
    <g id="iOS" stroke="none" stroke-width="1" fill="none" fill-rule="evenodd">
        <g id="SpaceX_MobileApp_iOS_X_Home_Rockets_1" transform="translate(-317.000000, -292.000000)" fill="#58FBC8">
            <g id="Buttons/-Icons/Favorites/Active-Pressed" transform="translate(317.000000, 292.000000)">
                <path d="M30.5907639,36.0966067 C30.0790766,35.7405075 27.298341,33.7173959 25.2370843,32.2151818 C25.1989987,32.1874256 24.9870621,32.2258981 24.7336635,32.2832374 C24.480265,32.3405767 24.2272727,32.4090909 24.2272727,32.4090909 C23.6024847,33.0500967 23.2615756,33.3910058 23.2045455,33.4318182 C22.0368758,34.2642007 20.1794689,35.8969578 19.8862722,36.101214 C19.6007509,36.300351 19.2615024,36.4349861 18.9309527,36.480547 C18.5303018,36.5358344 18.175191,36.4575106 17.9039969,36.2537663 C17.2720635,35.7787042 17.428128,34.9586077 17.580099,34.5076058 L19.3515594,28.4316227 C17.3426763,26.9598516 14.9628201,25.2136912 14.6051509,24.9393018 C14.1088146,24.558945 13.8806022,23.8340657 14.0617394,23.215154 C14.2280376,22.6464104 14.716187,22.2604224 15.3363516,22.2076946 L21.4689201,21.6875835 C22.2784089,19.4453722 23.5852574,15.8281427 23.8190984,15.1923376 C24.02889,14.4971497 24.5656497,14.0302783 25.1904195,14.0016108 C25.8448671,13.9698717 26.4363773,14.4090994 26.7331557,15.1488244 L29.3616917,21.6886074 C30.6311871,21.8017418 34.440185,22.1406331 35.1171469,22.1969443 C35.7460102,22.2389218 36.2484868,22.629517 36.4291123,23.2177136 C36.6286702,23.8673405 36.3963643,24.6096251 35.8647216,25.0232568 L31.4754706,28.4311108 C31.8136957,29.8030575 32.7040311,33.4028816 32.9997862,34.5270588 C33.1190092,34.9816441 33.2213466,35.8130028 32.5628055,36.2727073 C32.3468736,36.4237239 32.089495,36.5 31.7978334,36.5 C31.3971825,36.5 30.9576434,36.3530788 30.5907639,36.0966067 Z" id="Buttons/-Icons--/Map/Active-Pressed/1/Favorites"></path>
            </g>
        </g>
    </g>
</svg>