<?xml version="1.0" encoding="UTF-8"?>
<svg width="48px" height="34px" viewBox="0 0 48 34" version="1.1" xmlns="http://www.w3.org/2000/svg" xmlns:xlink="http://www.w3.org/1999/xlink">
    <title>69D261D1-2A52-4C95-9645-F3DC28007944</title>
    <defs>
        <filter x="-3.5%" y="-66.0%" width="106.9%" height="228.0%" filterUnits="objectBoundingBox" id="filter-1">
            <feOffset dx="0" dy="0" in="SourceAlpha" result="shadowOffsetOuter1"></feOffset>
            <feGaussianBlur stdDeviation="3" in="shadowOffsetOuter1" result="shadowBlurOuter1"></feGaussianBlur>
            <feColorMatrix values="0 0 0 0 0.11372549   0 0 0 0 0.11372549   0 0 0 0 0.11372549  0 0 0 0.3 0" type="matrix" in="shadowBlurOuter1" result="shadowMatrixOuter1"></feColorMatrix>
            <feMerge>
                <feMergeNode in="shadowMatrixOuter1"></feMergeNode>
                <feMergeNode in="SourceGraphic"></feMergeNode>
            </feMerge>
        </filter>
    </defs>
    <g id="iOS" stroke="none" stroke-width="1" fill="none" fill-rule="evenodd">
        <g id="SpaceX_MobileApp_iOS_X_Home_UpcomingLaunchers_1" transform="translate(-284.000000, -1021.000000)" fill="#58FBC8" fill-rule="nonzero">
            <g id="Bars/Tab-Bar/iOS/3-Items" filter="url(#filter-1)" transform="translate(0.000000, 1020.000000)">
                <g id="Bars/Tab-Bar/Elements/Items/Active_Pressed" transform="translate(283.500000, 1.000000)">
                    <g id="Bars/Tab-Bar/Elements/Icons/Launchers/Active_Pressed" transform="translate(0.500000, 0.000000)">
                        <g transform="translate(13.000000, 6.000000)">
                            <path d="M5.38043478,0 C5.11043478,0 4.89130435,0.146086957 4.89130435,0.326086957 L4.89130435,1.63043478 L5.86956522,1.63043478 L5.86956522,0.326086957 C5.86956522,0.146086957 5.65043478,0 5.38043478,0 Z" id="Path"></path>
                            <path d="M17.1195652,0 C16.8495652,0 16.6304348,0.146086957 16.6304348,0.326086957 L16.6304348,1.63043478 L17.6086957,1.63043478 L17.6086957,0.326086957 C17.6086957,0.146086957 17.3895652,0 17.1195652,0 Z" id="Path"></path>
                            <path d="M19.076087,1.95652174 C20.9641304,1.95652174 22.5,3.4923913 22.5,5.38043478 L22.5,5.86956522 L22.5,5.86956522 L0,5.86956522 L0,5.38043478 L0,5.38043478 C0,3.4923913 1.53586957,1.95652174 3.42391304,1.95652174 L19.076087,1.95652174 Z M3.91304348,2.93478261 C3.37276492,2.93478261 2.93478261,3.37276492 2.93478261,3.91304348 C2.93478261,4.45332204 3.37276492,4.89130435 3.91304348,4.89130435 C4.45332204,4.89130435 4.89130435,4.45332204 4.89130435,3.91304348 C4.89130435,3.37276492 4.45332204,2.93478261 3.91304348,2.93478261 Z M6.84782609,2.93478261 C6.30754753,2.93478261 5.86956522,3.37276492 5.86956522,3.91304348 C5.86956522,4.45332204 6.30754753,4.89130435 6.84782609,4.89130435 C7.38810465,4.89130435 7.82608696,4.45332204 7.82608696,3.91304348 C7.82608696,3.37276492 7.38810465,2.93478261 6.84782609,2.93478261 Z M9.7826087,2.93478261 C9.24233014,2.93478261 8.80434783,3.37276492 8.80434783,3.91304348 C8.80434783,4.45332204 9.24233014,4.89130435 9.7826087,4.89130435 C10.3228873,4.89130435 10.7608696,4.45332204 10.7608696,3.91304348 C10.7608696,3.37276492 10.3228873,2.93478261 9.7826087,2.93478261 Z" id="Combined-Shape"></path>
                            <path d="M22.5,6.84782609 L22.5,19.076087 C22.5,20.9641304 20.9641304,22.5 19.076087,22.5 L3.42391304,22.5 C1.53586957,22.5 0,20.9641304 0,19.076087 L0,6.84782609 L0,6.84782609 L22.5,6.84782609 Z M11.9421978,15.978239 C11.3816846,16.2035871 10.8380932,16.383446 10.3128154,16.5203268 L10.3128154,16.5203268 L10.3740835,18.0751773 C11.5095169,17.6099298 11.8423331,16.578518 11.9421978,15.978239 Z M9.23802876,16.3348154 C9.16147256,16.1967044 9.00428564,16.1361144 8.88394922,16.2028179 L8.88394922,16.2028179 L7.82241013,16.7912387 L7.77698611,16.8251267 C7.69674809,16.9037699 7.68109717,17.0430822 7.74671676,17.1614631 C7.82327296,17.2995742 7.98260875,17.358973 8.1007963,17.2934606 L8.1007963,17.2934606 L9.16233539,16.7050399 L9.20775941,16.6711518 C9.28799743,16.5925086 9.30364835,16.4531963 9.23802876,16.3348154 Z M7.6079929,15.7152004 C7.5314367,15.5770893 7.37210091,15.5176905 7.25391336,15.5832029 L7.25391336,15.5832029 L6.19237427,16.1716236 L6.14695025,16.2055117 C6.06671223,16.2841549 6.0510613,16.4234672 6.1166809,16.5418481 C6.19323709,16.6799591 6.35257289,16.739358 6.47076044,16.6738456 L6.47076044,16.6738456 L7.53229952,16.0854248 L7.57772355,16.0515368 C7.65796156,15.9728935 7.67361249,15.8335813 7.6079929,15.7152004 Z M13.7683433,10.4851461 C13.1745205,10.5845206 12.5779644,10.7904557 11.9891755,11.1168267 C10.6762192,11.8446102 9.58391505,12.6207831 8.73602237,13.4223273 L8.73602237,13.4223273 L10.151616,15.9761258 C11.2906661,15.6795723 12.5263392,15.1620437 13.8306999,14.4390247 C14.4194888,14.1126537 14.9102582,13.7158744 15.3092107,13.2649445 C14.8712242,12.9562359 14.4985572,12.5423841 14.2243468,12.0476955 C13.9487445,11.5504958 13.7945048,11.0188504 13.7683433,10.4851461 Z M7.94631696,14.0045056 C7.86976077,13.8663946 7.71257384,13.8058046 7.59223743,13.8725082 L7.59223743,13.8725082 L6.53069834,14.4609289 L6.48527431,14.494817 C6.4050363,14.5734602 6.38938537,14.7127725 6.45500496,14.8311534 C6.53156116,14.9692644 6.69089695,15.0286632 6.8090845,14.9631508 L6.8090845,14.9631508 L7.87062359,14.3747301 L7.91604762,14.340842 C7.99628563,14.2621988 8.01193656,14.1228865 7.94631696,14.0045056 Z M12.1460911,12.5300269 C12.3867639,12.3966198 12.7125171,12.5180574 12.8684133,12.7993017 C13.0257015,13.0830571 12.9546717,13.4211525 12.7139988,13.5545596 C12.473326,13.6879668 12.1475728,13.5665291 11.9916766,13.2852848 C11.8343884,13.0015294 11.9054182,12.663434 12.1460911,12.5300269 Z M9.68385098,11.8990058 C9.12477113,11.660703 8.07662439,11.3914888 7.07242365,12.1188252 L7.07242365,12.1188252 L8.35993649,12.9972399 C8.75083196,12.6229949 9.19356937,12.2561227 9.68385098,11.8990058 Z M14.5652362,10.4176455 C14.5061908,10.4175482 14.4485372,10.4199621 14.3894918,10.4198648 C14.3496641,10.418963 14.3090796,10.4217633 14.268495,10.4245637 C14.2853593,11.3671898 14.8274554,12.3502248 15.6228437,12.8678734 C15.6467251,12.8349397 15.6706065,12.802006 15.692339,12.7702635 C15.7256947,12.7189474 15.7569016,12.6688225 15.7881084,12.6186975 C15.8251268,12.5587859 15.8564556,12.4987453 15.8891763,12.4412159 C15.9160855,12.3934732 15.9429946,12.3457306 15.9663629,12.2966679 C15.9955428,12.2378185 16.020425,12.1813514 16.0453072,12.1248843 C16.0643778,12.0782039 16.0869892,12.0328435 16.1039109,11.9873543 C16.1252523,11.9295672 16.1458368,11.8754823 16.1642724,11.8225886 C16.1768964,11.7794816 16.1930612,11.7376947 16.2070771,11.6970988 C16.2241208,11.641694 16.2382586,11.5911825 16.2523965,11.5406711 L16.2523965,11.5406711 L16.2680971,11.4860107 L16.2821861,11.4322437 C16.296324,11.3817322 16.3054072,11.3373053 16.3152473,11.2891761 C16.3213028,11.2595582 16.3295071,11.2287491 16.3334137,11.2003222 C16.3432539,11.1521931 16.3480393,11.1101484 16.3549737,11.0669126 C16.3587583,11.0484014 16.361908,11.0236768 16.3656927,11.0051656 C16.3756548,10.9471208 16.3805622,10.8951605 16.3853477,10.8531158 C16.3479128,10.8311916 16.2990986,10.8090097 16.2453516,10.7829968 C16.2297965,10.7752058 16.2071598,10.7647748 16.1894559,10.7581749 C16.1491152,10.7411441 16.1087745,10.7241133 16.0613522,10.7044425 C16.0365667,10.6952027 16.0060914,10.685834 15.9777651,10.6752742 C15.9317347,10.6581145 15.8870963,10.643466 15.8353763,10.6261775 C15.8035092,10.6142977 15.7651954,10.6059913 15.7311794,10.5953027 C15.6787024,10.5817164 15.6283744,10.566939 15.5723566,10.5520328 C15.532651,10.5412153 15.4886476,10.5327801 15.446793,10.5231538 C15.3907753,10.5082475 15.3340006,10.4970435 15.2715363,10.4857107 C15.2239921,10.4759555 15.1756909,10.4699026 15.1273898,10.4638497 C15.0627766,10.453708 14.9995554,10.4460774 14.9341852,10.4396379 C14.8801944,10.4334561 14.8275956,10.4297855 14.7728478,10.4273059 C14.7053288,10.4220576 14.635661,10.4180004 14.5652362,10.4176455 Z" id="Combined-Shape"></path>
                        </g>
                    </g>
                </g>
            </g>
        </g>
    </g>
</svg>